<svg xmlns="http://www.w3.org/2000/svg" xmlns:xlink="http://www.w3.org/1999/xlink" width="436" height="237" viewBox="0 0 436 237">
  <defs>
    <clipPath id="clip-path">
      <rect width="400" height="237" fill="none"/>
    </clipPath>
    <clipPath id="clip-path-2">
      <rect width="22" height="228" fill="none"/>
    </clipPath>
  </defs>
  <g id="Group_5435" data-name="Group 5435" transform="translate(-189 -3147)">
    <g id="Repeat_Grid_6" data-name="Repeat Grid 6" transform="translate(225 3147)" clip-path="url(#clip-path)">
      <g transform="translate(-225 -3147)">
        <text id="Targeted_Advertising" data-name="Targeted Advertising" transform="translate(225 3147)" fill="#3f63da" font-size="28" font-family="SegoeUI-Bold, Segoe UI" font-weight="700"><tspan x="0" y="30">Targeted Advertising</tspan></text>
      </g>
      <g transform="translate(-225 -3082)">
        <text id="Quality_Over_Quantity" data-name="Quality Over Quantity" transform="translate(225 3147)" fill="#3f63da" font-size="28" font-family="SegoeUI-Bold, Segoe UI" font-weight="700"><tspan x="0" y="30">Quality Over Quantity</tspan></text>
      </g>
      <g transform="translate(-225 -3017)">
        <text id="Accurate_Statistics" data-name="Accurate Statistics" transform="translate(225 3147)" fill="#3f63da" font-size="28" font-family="SegoeUI-Bold, Segoe UI" font-weight="700"><tspan x="0" y="30">Accurate Statistics</tspan></text>
      </g>
      <g transform="translate(-225 -2952)">
        <text id="Competitive_Rates" data-name="Competitive Rates" transform="translate(225 3147)" fill="#3f63da" font-size="28" font-family="SegoeUI-Bold, Segoe UI" font-weight="700"><tspan x="0" y="30">Competitive Rates</tspan></text>
      </g>
    </g>
    <g id="Repeat_Grid_7" data-name="Repeat Grid 7" transform="translate(189 3156)" clip-path="url(#clip-path-2)">
      <g transform="translate(-186 -3159)">
        <g id="Group_4014" data-name="Group 4014" transform="translate(-1062 2692)">
          <path id="check" d="M5.466,76.863l-5.23-5.23a.8.8,0,0,1,0-1.138l1.138-1.138a.8.8,0,0,1,1.138,0L6.035,72.88l7.546-7.546a.8.8,0,0,1,1.138,0l1.138,1.138a.8.8,0,0,1,0,1.138L6.6,76.863a.8.8,0,0,1-1.138,0Z" transform="translate(1253.908 404.902)" fill="#e8306e"/>
          <path id="Path_611" data-name="Path 611" d="M190.382,18.058h-4.65a.367.367,0,0,1-.367-.367V16.2a.367.367,0,0,1,.367-.367h3.65a.859.859,0,0,0,.859-.859V3.084a.859.859,0,0,0-.859-.859h-11.89a.859.859,0,0,0-.859.859v2.6a.367.367,0,0,1-.367.367h-1.49a.367.367,0,0,1-.367-.367v-3.6A2.081,2.081,0,0,1,176.492,0h13.89a2.083,2.083,0,0,1,2.084,2.084v13.89A2.083,2.083,0,0,1,190.382,18.058Z" transform="translate(1441.293 488) rotate(180)" fill="#e8306e"/>
        </g>
      </g>
      <g transform="translate(-186 -3093)">
        <g id="Group_4014-2" data-name="Group 4014" transform="translate(-1062 2692)">
          <path id="check-2" data-name="check" d="M5.466,76.863l-5.23-5.23a.8.8,0,0,1,0-1.138l1.138-1.138a.8.8,0,0,1,1.138,0L6.035,72.88l7.546-7.546a.8.8,0,0,1,1.138,0l1.138,1.138a.8.8,0,0,1,0,1.138L6.6,76.863a.8.8,0,0,1-1.138,0Z" transform="translate(1253.908 404.902)" fill="#e8306e"/>
          <path id="Path_611-2" data-name="Path 611" d="M190.382,18.058h-4.65a.367.367,0,0,1-.367-.367V16.2a.367.367,0,0,1,.367-.367h3.65a.859.859,0,0,0,.859-.859V3.084a.859.859,0,0,0-.859-.859h-11.89a.859.859,0,0,0-.859.859v2.6a.367.367,0,0,1-.367.367h-1.49a.367.367,0,0,1-.367-.367v-3.6A2.081,2.081,0,0,1,176.492,0h13.89a2.083,2.083,0,0,1,2.084,2.084v13.89A2.083,2.083,0,0,1,190.382,18.058Z" transform="translate(1441.293 488) rotate(180)" fill="#e8306e"/>
        </g>
      </g>
      <g transform="translate(-186 -3027)">
        <g id="Group_4014-3" data-name="Group 4014" transform="translate(-1062 2692)">
          <path id="check-3" data-name="check" d="M5.466,76.863l-5.23-5.23a.8.8,0,0,1,0-1.138l1.138-1.138a.8.8,0,0,1,1.138,0L6.035,72.88l7.546-7.546a.8.8,0,0,1,1.138,0l1.138,1.138a.8.8,0,0,1,0,1.138L6.6,76.863a.8.8,0,0,1-1.138,0Z" transform="translate(1253.908 404.902)" fill="#e8306e"/>
          <path id="Path_611-3" data-name="Path 611" d="M190.382,18.058h-4.65a.367.367,0,0,1-.367-.367V16.2a.367.367,0,0,1,.367-.367h3.65a.859.859,0,0,0,.859-.859V3.084a.859.859,0,0,0-.859-.859h-11.89a.859.859,0,0,0-.859.859v2.6a.367.367,0,0,1-.367.367h-1.49a.367.367,0,0,1-.367-.367v-3.6A2.081,2.081,0,0,1,176.492,0h13.89a2.083,2.083,0,0,1,2.084,2.084v13.89A2.083,2.083,0,0,1,190.382,18.058Z" transform="translate(1441.293 488) rotate(180)" fill="#e8306e"/>
        </g>
      </g>
      <g transform="translate(-186 -2961)">
        <g id="Group_4014-4" data-name="Group 4014" transform="translate(-1062 2692)">
          <path id="check-4" data-name="check" d="M5.466,76.863l-5.23-5.23a.8.8,0,0,1,0-1.138l1.138-1.138a.8.8,0,0,1,1.138,0L6.035,72.88l7.546-7.546a.8.8,0,0,1,1.138,0l1.138,1.138a.8.8,0,0,1,0,1.138L6.6,76.863a.8.8,0,0,1-1.138,0Z" transform="translate(1253.908 404.902)" fill="#e8306e"/>
          <path id="Path_611-4" data-name="Path 611" d="M190.382,18.058h-4.65a.367.367,0,0,1-.367-.367V16.2a.367.367,0,0,1,.367-.367h3.65a.859.859,0,0,0,.859-.859V3.084a.859.859,0,0,0-.859-.859h-11.89a.859.859,0,0,0-.859.859v2.6a.367.367,0,0,1-.367.367h-1.49a.367.367,0,0,1-.367-.367v-3.6A2.081,2.081,0,0,1,176.492,0h13.89a2.083,2.083,0,0,1,2.084,2.084v13.89A2.083,2.083,0,0,1,190.382,18.058Z" transform="translate(1441.293 488) rotate(180)" fill="#e8306e"/>
        </g>
      </g>
    </g>
  </g>
</svg>
