<svg xmlns="http://www.w3.org/2000/svg" width="400" height="24" viewBox="0 0 116 24">
  <g id="Group_5402" data-name="Group 5402" transform="translate(-139 -4902)">
    <path id="facebook" d="M24,33.323V54.671a1.323,1.323,0,0,1-1.323,1.323H16.559V46.705h3.118l.466-3.621H16.554V40.77c0-1.05.289-1.762,1.795-1.762h1.918V35.766a25.786,25.786,0,0,0-2.8-.145c-2.764,0-4.661,1.688-4.661,4.789v2.673H9.68v3.621h3.129V56H1.323A1.326,1.326,0,0,1,0,54.677V33.323A1.326,1.326,0,0,1,1.323,32H22.671A1.327,1.327,0,0,1,24,33.323Z" transform="translate(185 4870)" fill="#fff"/>
    <path id="linkedin" d="M22.286,32H1.709A1.722,1.722,0,0,0,0,33.73V54.27A1.722,1.722,0,0,0,1.709,56H22.286A1.726,1.726,0,0,0,24,54.27V33.73A1.726,1.726,0,0,0,22.286,32ZM7.254,52.571H3.7V41.118H7.259V52.571ZM5.475,39.554a2.062,2.062,0,1,1,2.062-2.062A2.063,2.063,0,0,1,5.475,39.554ZM20.587,52.571H17.03V47c0-1.329-.027-3.037-1.848-3.037-1.854,0-2.138,1.446-2.138,2.941v5.668H9.488V41.118H12.9v1.564h.048a3.747,3.747,0,0,1,3.37-1.848c3.6,0,4.27,2.373,4.27,5.459Z" transform="translate(139 4870)" fill="#fff"/>
    <path id="twitter-square" d="M21.429,32H2.571A2.572,2.572,0,0,0,0,34.571V53.429A2.572,2.572,0,0,0,2.571,56H21.429A2.572,2.572,0,0,0,24,53.429V34.571A2.572,2.572,0,0,0,21.429,32Zm-2.62,8.507c.011.15.011.305.011.455a9.928,9.928,0,0,1-10,10,9.95,9.95,0,0,1-5.395-1.575,7.4,7.4,0,0,0,.846.043,7.044,7.044,0,0,0,4.361-1.5,3.518,3.518,0,0,1-3.284-2.437,3.787,3.787,0,0,0,1.586-.064,3.514,3.514,0,0,1-2.812-3.45v-.043a3.511,3.511,0,0,0,1.586.445,3.506,3.506,0,0,1-1.564-2.925,3.47,3.47,0,0,1,.477-1.773,9.976,9.976,0,0,0,7.243,3.675,3.521,3.521,0,0,1,5.995-3.209,6.885,6.885,0,0,0,2.229-.846,3.5,3.5,0,0,1-1.543,1.934,6.992,6.992,0,0,0,2.025-.546A7.4,7.4,0,0,1,18.809,40.507Z" transform="translate(231 4870)" fill="#fff"/>
  </g>
</svg>
