<svg xmlns="http://www.w3.org/2000/svg" xmlns:xlink="http://www.w3.org/1999/xlink" width="81" height="39.986" viewBox="0 0 81 39.986">
  <defs>
    <clipPath id="clip-path">
      <path id="Path_16075" data-name="Path 16075" d="M0,0H81V30L27.08,39.986,22.5,30H0Z" transform="translate(595 4961)" fill="#fff"/>
    </clipPath>
    <linearGradient id="linear-gradient" x1="-2.945" y1="2.661" x2="-3.07" y2="0.974" gradientUnits="objectBoundingBox">
      <stop offset="0" stop-color="#d4d1d8"/>
      <stop offset="1" stop-color="#fff"/>
    </linearGradient>
    <linearGradient id="linear-gradient-2" x1="0.219" y1="1.878" x2="0.143" y2="-0.137" gradientUnits="objectBoundingBox">
      <stop offset="0" stop-color="#fff"/>
      <stop offset="1" stop-color="#e6e6e6"/>
    </linearGradient>
    <linearGradient id="linear-gradient-3" x1="-3.512" y1="0.262" x2="-2.858" y2="1.645" xlink:href="#linear-gradient"/>
    <linearGradient id="linear-gradient-4" x1="-3.365" y1="2.93" x2="-3.004" y2="2.563" xlink:href="#linear-gradient"/>
    <linearGradient id="linear-gradient-5" x1="-3.022" y1="5.186" x2="-3.012" y2="3.721" gradientUnits="objectBoundingBox">
      <stop offset="0" stop-color="#fff"/>
      <stop offset="1" stop-color="#bebebe"/>
    </linearGradient>
    <linearGradient id="linear-gradient-6" x1="0.236" y1="0.96" x2="0.218" y2="0.192" xlink:href="#linear-gradient"/>
  </defs>
  <g id="Mask_Group_14" data-name="Mask Group 14" transform="translate(-595 -4961)" clip-path="url(#clip-path)">
    <g id="Group_5417" data-name="Group 5417" transform="translate(601.842 4972.445) rotate(-14)">
      <g id="Group_5408" data-name="Group 5408" transform="translate(0 0)">
        <path id="Path_16068" data-name="Path 16068" d="M50.7,6.35,3.7,0,0,13.232Z" transform="translate(4 9.053)" fill="url(#linear-gradient)"/>
        <path id="Path_16069" data-name="Path 16069" d="M50.7,6.35,3.7,0,0,13.232Z" transform="translate(4 9.053)" fill="url(#linear-gradient-2)"/>
        <path id="Path_16070" data-name="Path 16070" d="M54.7,15.4l-47-6.35L1.428,5.585,0,0Z" transform="translate(0 0)" fill="url(#linear-gradient-3)"/>
        <path id="Path_16071" data-name="Path 16071" d="M50.7,0,7.97,2.052,0,6.882Z" transform="translate(4 15.402)" fill="url(#linear-gradient-4)"/>
        <path id="Path_16072" data-name="Path 16072" d="M50.7,0,7.97,2.052,0,6.882Z" transform="translate(4 15.402)" fill="url(#linear-gradient-5)" style="mix-blend-mode: multiply;isolation: isolate"/>
        <path id="Path_16073" data-name="Path 16073" d="M42.733,0,0,2.052l1.315,7.961,1.267,5.894Z" transform="translate(11.97 15.402)" fill="url(#linear-gradient-6)"/>
        <path id="Path_16074" data-name="Path 16074" d="M14.592,31.313l-1.306-5.9L11.97,17.454,4,22.285,7.7,9.053,1.428,5.585,0,0,1.624,5.571l6.2,3.507-3.5,12.767,7.639-4.391,1.47,7.757Z" transform="translate(0 0)" fill="#fff"/>
      </g>
    </g>
  </g>
</svg>
